<svg width="44" height="40" viewBox="0 0 44 40" fill="none" xmlns="http://www.w3.org/2000/svg">
<rect width="44" height="40" fill="url(#paint0_linear_168_45)"/>
<path d="M28.83 17.44C28.7383 17.3043 28.6146 17.1932 28.4699 17.1165C28.3252 17.0397 28.1638 16.9998 28 17H25V15H27.2C27.4652 15 27.7196 14.8946 27.9071 14.7071C28.0946 14.5196 28.2 14.2652 28.2 14V10C28.2 9.73478 28.0946 9.48043 27.9071 9.29289C27.7196 9.10536 27.4652 9 27.2 9H24C22.4617 9 20.9865 9.61107 19.8988 10.6988C18.8111 11.7865 18.2 13.2617 18.2 14.8V17H16C15.7348 17 15.4804 17.1054 15.2929 17.2929C15.1054 17.4804 15 17.7348 15 18V22C15 22.2652 15.1054 22.5196 15.2929 22.7071C15.4804 22.8946 15.7348 23 16 23H18.2V30C18.2 30.2652 18.3054 30.5196 18.4929 30.7071C18.6804 30.8946 18.9348 31 19.2 31H24C24.2652 31 24.5196 30.8946 24.7071 30.7071C24.8946 30.5196 25 30.2652 25 30V23H26.4C26.6003 23.0002 26.796 22.9402 26.9618 22.8279C27.1276 22.7156 27.2559 22.5561 27.33 22.37L28.93 18.37C28.9904 18.2186 29.0129 18.0547 28.9954 17.8926C28.978 17.7305 28.9212 17.5751 28.83 17.44V17.44ZM25.72 21H24C23.7348 21 23.4804 21.1054 23.2929 21.2929C23.1054 21.4804 23 21.7348 23 22V29H20.2V22C20.2 21.7348 20.0946 21.4804 19.9071 21.2929C19.7196 21.1054 19.4652 21 19.2 21H17V19H19.2C19.4652 19 19.7196 18.8946 19.9071 18.7071C20.0946 18.5196 20.2 18.2652 20.2 18V14.8C20.2026 13.793 20.6038 12.828 21.3159 12.1159C22.028 11.4038 22.993 11.0026 24 11H26.2V13H25.4C25.0614 12.9507 24.7163 12.9714 24.3861 13.0608C24.0558 13.1503 23.7474 13.3065 23.48 13.52C23.3177 13.6899 23.1915 13.8909 23.109 14.1109C23.0265 14.3309 22.9894 14.5653 23 14.8V18C23 18.2652 23.1054 18.5196 23.2929 18.7071C23.4804 18.8946 23.7348 19 24 19H26.52L25.72 21Z" fill="black"/>
<defs>
<linearGradient id="paint0_linear_168_45" x1="44" y1="16.0406" x2="-2.59406e-07" y2="16.0406" gradientUnits="userSpaceOnUse">
<stop stop-color="#564C30"/>
<stop offset="0.653885" stop-color="#CCB67A"/>
<stop offset="1" stop-color="#D6CEB8"/>
</linearGradient>
</defs>
</svg>
