<svg width="28" height="22" viewBox="0 0 28 22" fill="none" xmlns="http://www.w3.org/2000/svg">
<path d="M23.3334 0.333496H4.66675C3.60588 0.333496 2.58847 0.754924 1.83832 1.50507C1.08818 2.25521 0.666748 3.27263 0.666748 4.3335V17.6668C0.666748 18.7277 1.08818 19.7451 1.83832 20.4953C2.58847 21.2454 3.60588 21.6668 4.66675 21.6668H23.3334C24.3943 21.6668 25.4117 21.2454 26.1618 20.4953C26.912 19.7451 27.3334 18.7277 27.3334 17.6668V4.3335C27.3334 3.27263 26.912 2.25521 26.1618 1.50507C25.4117 0.754924 24.3943 0.333496 23.3334 0.333496ZM4.66675 3.00016H23.3334C23.687 3.00016 24.0262 3.14064 24.2762 3.39069C24.5263 3.64074 24.6667 3.97987 24.6667 4.3335L14.0001 10.8402L3.33341 4.3335C3.33341 3.97987 3.47389 3.64074 3.72394 3.39069C3.97399 3.14064 4.31313 3.00016 4.66675 3.00016ZM24.6667 17.6668C24.6667 18.0205 24.5263 18.3596 24.2762 18.6096C24.0262 18.8597 23.687 19.0002 23.3334 19.0002H4.66675C4.31313 19.0002 3.97399 18.8597 3.72394 18.6096C3.47389 18.3596 3.33341 18.0205 3.33341 17.6668V7.3735L13.3067 13.4668C13.5094 13.5839 13.7394 13.6455 13.9734 13.6455C14.2075 13.6455 14.4374 13.5839 14.6401 13.4668L24.6667 7.3735V17.6668Z" fill="#F2F1E2"/>
</svg>
