<svg width="249" height="249" viewBox="0 0 249 249" fill="none" xmlns="http://www.w3.org/2000/svg">
<path d="M124.5 62.625C112.262 62.625 100.299 66.2539 90.1241 73.0528C79.9488 79.8517 72.0181 89.5153 67.335 100.821C62.6518 112.128 61.4265 124.569 63.8139 136.571C66.2014 148.574 72.0944 159.599 80.7478 168.252C89.4011 176.906 100.426 182.799 112.429 185.186C124.431 187.574 136.872 186.348 148.179 181.665C159.485 176.982 169.148 169.051 175.947 158.876C182.746 148.701 186.375 136.738 186.375 124.5C186.375 108.09 179.856 92.3516 168.252 80.7478C156.648 69.144 140.91 62.625 124.5 62.625V62.625ZM124.5 161.625C117.157 161.625 109.98 159.448 103.874 155.368C97.7693 151.289 93.0109 145.491 90.201 138.707C87.3911 131.923 86.6559 124.459 88.0883 117.257C89.5208 110.056 93.0566 103.441 98.2487 98.2487C103.441 93.0566 110.056 89.5208 117.257 88.0883C124.459 86.6559 131.923 87.3911 138.707 90.201C145.491 93.0109 151.289 97.7693 155.368 103.874C159.448 109.98 161.625 117.157 161.625 124.5C161.625 134.346 157.714 143.789 150.751 150.751C143.789 157.714 134.346 161.625 124.5 161.625ZM186.375 50.25C183.927 50.25 181.535 50.9758 179.5 52.3356C177.465 53.6953 175.879 55.6281 174.942 57.8893C174.005 60.1505 173.76 62.6387 174.238 65.0392C174.715 67.4398 175.894 69.6448 177.625 71.3754C179.355 73.1061 181.56 74.2847 183.961 74.7622C186.361 75.2397 188.849 74.9946 191.111 74.058C193.372 73.1214 195.305 71.5352 196.664 69.5002C198.024 67.4651 198.75 65.0725 198.75 62.625C198.75 59.3429 197.446 56.1953 195.125 53.8746C192.805 51.5538 189.657 50.25 186.375 50.25ZM247.508 77.97C247.302 67.3946 245.294 56.9318 241.567 47.0325C238.112 38.0243 232.801 29.8435 225.979 23.0213C219.156 16.199 210.976 10.8878 201.968 7.4325C192.068 3.70638 181.605 1.69752 171.03 1.4925C159.026 0.749999 155.066 0.75 124.5 0.75C93.9337 0.75 89.9737 0.749999 77.97 1.4925C67.3946 1.69752 56.9318 3.70638 47.0325 7.4325C38.0243 10.8878 29.8435 16.199 23.0213 23.0213C16.199 29.8435 10.8878 38.0243 7.4325 47.0325C3.70638 56.9318 1.69752 67.3946 1.4925 77.97C0.749999 90.0975 0.75 94.0575 0.75 124.5C0.75 154.943 0.749999 158.903 1.4925 171.03C1.69752 181.605 3.70638 192.068 7.4325 201.968C10.8878 210.976 16.199 219.156 23.0213 225.979C29.8435 232.801 38.0243 238.112 47.0325 241.567C56.9318 245.294 67.3946 247.302 77.97 247.508C90.345 247.508 93.9337 248.25 124.5 248.25C155.066 248.25 159.026 248.25 171.03 247.508C181.605 247.302 192.068 245.294 201.968 241.567C210.976 238.112 219.156 232.801 225.979 225.979C232.801 219.156 238.112 210.976 241.567 201.968C245.294 192.068 247.302 181.605 247.508 171.03C247.508 158.655 248.25 154.943 248.25 124.5C248.25 94.0575 248.25 90.0975 247.508 77.97ZM222.758 169.916C222.541 177.77 221.079 185.539 218.426 192.934C216.233 198.779 212.767 204.063 208.279 208.403C203.965 212.893 198.671 216.324 192.81 218.426C185.397 221.187 177.576 222.693 169.669 222.881C158.036 222.881 154.447 223.5 124.376 223.5C94.305 223.5 90.84 223.5 79.2075 223.5C71.3125 223.296 63.5006 221.834 56.0662 219.169C50.221 216.976 44.937 213.509 40.5975 209.021C36.1073 204.708 32.6765 199.413 30.5737 193.552C27.8241 186.18 26.3186 178.401 26.1188 170.535C26.1188 158.16 26.1188 155.066 26.1188 125.119C26.1188 95.1713 26.1188 91.5825 26.1188 79.7025C26.3321 71.7974 27.8369 63.9805 30.5737 56.5613C32.7091 50.7528 36.1367 45.5057 40.5975 41.2162C44.9111 36.726 50.2056 33.2952 56.0662 31.1925C63.4788 28.4316 71.2998 26.9259 79.2075 26.7375C90.84 25.5 94.4287 25.5 124.5 25.5C154.571 25.5 158.16 25.5 169.792 25.5C177.739 25.7021 185.599 27.2071 193.058 29.955C198.866 32.0904 204.113 35.518 208.403 39.9788C212.893 44.2924 216.324 49.5868 218.426 55.4475C221.456 62.9785 223.172 70.973 223.5 79.0837C223.5 91.4587 224.119 94.5525 224.119 124.5C224.119 154.448 223.5 158.036 223.5 169.916H222.758Z" fill="url(#paint0_linear_177_7)" fill-opacity="0.56"/>
<defs>
<linearGradient id="paint0_linear_177_7" x1="248.25" y1="100.001" x2="0.749999" y2="100.001" gradientUnits="userSpaceOnUse">
<stop stop-color="#564C30"/>
<stop offset="0.653885" stop-color="#CCB67A"/>
<stop offset="1" stop-color="#D6CEB8"/>
</linearGradient>
</defs>
</svg>
