<svg width="389" height="566" viewBox="0 0 389 566" fill="none" xmlns="http://www.w3.org/2000/svg">
<path d="M186.37 329.931L176.202 338.031L186.37 329.93C165.587 303.844 134.221 289.14 103.844 280.792C134.451 271.134 166.007 255.053 186.557 227.983C200.098 210.145 209.532 186.609 216.246 162.268C218.419 154.392 220.332 146.336 222.017 138.235C223.775 146.405 225.764 154.528 228.015 162.467C234.913 186.792 244.52 210.288 258.184 228.049C279.022 255.136 311.002 271.193 341.77 280.822C311.229 289.119 279.441 303.769 258.373 329.865C243.843 347.861 233.842 372.053 226.802 397.177C225.052 403.422 223.469 409.785 222.036 416.202C220.663 409.857 219.142 403.565 217.457 397.387C210.602 372.245 200.775 348.012 186.37 329.931Z" stroke="url(#paint0_linear_135_27)" stroke-width="26"/>
<defs>
<linearGradient id="paint0_linear_135_27" x1="443" y1="226.975" x2="-2.61175e-06" y2="226.975" gradientUnits="userSpaceOnUse">
<stop stop-color="#564C30"/>
<stop offset="0.653885" stop-color="#CCB67A"/>
<stop offset="1" stop-color="#D6CEB8"/>
</linearGradient>
</defs>
</svg>
