<svg width="74" height="54" viewBox="0 0 74 54" fill="none" xmlns="http://www.w3.org/2000/svg">
<path d="M41.9999 32C39.2221 32 36.861 31.0278 34.9166 29.0834C32.9721 27.1389 31.9999 24.7778 31.9999 22C31.9999 19.2223 32.9721 16.8612 34.9166 14.9167C36.861 12.9723 39.2221 12 41.9999 12C44.7777 12 47.1388 12.9723 49.0833 14.9167C51.0277 16.8612 51.9999 19.2223 51.9999 22C51.9999 24.7778 51.0277 27.1389 49.0833 29.0834C47.1388 31.0278 44.7777 32 41.9999 32ZM10.3333 43.6667V0.333374H73.6666V43.6667H10.3333ZM23.6666 38.6667H60.3333C60.3333 36.3334 61.1388 34.3612 62.7499 32.75C64.361 31.1389 66.3333 30.3334 68.6666 30.3334V13.6667C66.3333 13.6667 64.361 12.8612 62.7499 11.25C61.1388 9.63893 60.3333 7.66671 60.3333 5.33337H23.6666C23.6666 7.66671 22.861 9.63893 21.2499 11.25C19.6388 12.8612 17.6666 13.6667 15.3333 13.6667V30.3334C17.6666 30.3334 19.6388 31.1389 21.2499 32.75C22.861 34.3612 23.6666 36.3334 23.6666 38.6667ZM0.333252 53.6667V10.3334H5.33325V48.6667H63.6666V53.6667H0.333252Z" fill="url(#paint0_linear_103_323)"/>
<defs>
<linearGradient id="paint0_linear_103_323" x1="73.6666" y1="21.7208" x2="0.333252" y2="21.7208" gradientUnits="userSpaceOnUse">
<stop stop-color="#564C30"/>
<stop offset="0.653885" stop-color="#CCB67A"/>
<stop offset="1" stop-color="#D6CEB8"/>
</linearGradient>
</defs>
</svg>
