<svg width="80" height="80" viewBox="0 0 80 80" fill="none" xmlns="http://www.w3.org/2000/svg">
<mask id="path-1-inside-1_103_409" fill="white">
<path d="M39.6973 0C39.6973 0 39.3568 21.9623 48.1183 30.8755C57.0142 39.9255 79.3944 39.6951 79.3944 39.6951C79.3944 39.6951 57.1512 38.6577 48.1183 47.4139C38.8462 56.4021 39.6973 79.39 39.6973 79.39C39.6973 79.39 40.77 56.4428 31.5789 47.4139C22.5225 38.5175 0 39.6951 0 39.6951C0 39.6951 22.6641 40.0661 31.5789 30.8755C40.2597 21.9262 39.6973 0 39.6973 0Z"/>
<path d="M39.6973 0C39.6973 0 39.3568 21.9623 48.1183 30.8755C57.0142 39.9255 79.3944 39.6951 79.3944 39.6951C79.3944 39.6951 57.1512 38.6577 48.1183 47.4139C38.8462 56.4021 39.6973 79.39 39.6973 79.39C39.6973 79.39 40.77 56.4428 31.5789 47.4139C22.5225 38.5175 0 39.6951 0 39.6951C0 39.6951 22.6641 40.0661 31.5789 30.8755C40.2597 21.9262 39.6973 0 39.6973 0Z"/>
</mask>
<path d="M39.6973 0L52.693 -0.333328L26.6988 -0.201517L39.6973 0ZM48.1183 30.8755L57.3893 21.7624L57.3892 21.7623L48.1183 30.8755ZM79.3944 39.6951L79.5282 52.6944L80 26.7092L79.3944 39.6951ZM48.1183 47.4139L57.1666 56.7482L57.1667 56.7481L48.1183 47.4139ZM39.6973 79.39L26.7062 79.871L52.6831 79.997L39.6973 79.39ZM31.5789 47.4139L40.6891 38.1401L40.6891 38.14L31.5789 47.4139ZM0 39.6951L-0.678791 26.7128L-0.212814 52.6933L0 39.6951ZM31.5789 30.8755L22.2476 21.8242L22.2476 21.8242L31.5789 30.8755ZM39.6973 0C26.6988 -0.201517 26.6988 -0.198858 26.6987 -0.196115C26.6987 -0.195088 26.6987 -0.192254 26.6987 -0.190196C26.6986 -0.186078 26.6985 -0.181616 26.6985 -0.176812C26.6983 -0.167205 26.6982 -0.156229 26.698 -0.143902C26.6977 -0.11925 26.6974 -0.0891863 26.6971 -0.053848C26.6964 0.0168176 26.6959 0.108645 26.6956 0.220536C26.6951 0.444214 26.696 0.748722 26.7008 1.12523C26.7103 1.87707 26.7352 2.92285 26.7958 4.191C26.9159 6.70751 27.181 10.1985 27.7716 14.0606C28.816 20.8898 31.3345 32.3457 38.8474 39.9887L57.3892 21.7623C56.1406 20.4921 54.4485 16.5102 53.4728 10.13C53.0534 7.38741 52.8559 4.83072 52.7662 2.95076C52.7217 2.02067 52.7048 1.28102 52.6987 0.796973C52.6957 0.55554 52.6953 0.379497 52.6955 0.27711C52.6957 0.225968 52.6959 0.193384 52.696 0.180396C52.6961 0.173908 52.6961 0.172335 52.6961 0.175806C52.696 0.177543 52.696 0.180543 52.6959 0.184822C52.6959 0.186961 52.6959 0.189421 52.6958 0.192203C52.6958 0.193592 52.6958 0.195925 52.6958 0.196618C52.6957 0.199026 52.6957 0.201517 39.6973 0ZM38.8473 39.9886C46.4836 47.7572 58.1123 50.4071 65.0375 51.5156C68.9571 52.143 72.505 52.4341 75.0633 52.5711C76.3525 52.6401 77.416 52.6714 78.1804 52.6852C78.5632 52.6921 78.8728 52.6947 79.1 52.6954C79.2137 52.6957 79.307 52.6956 79.3787 52.6954C79.4145 52.6952 79.445 52.6951 79.47 52.6949C79.4825 52.6948 79.4936 52.6947 79.5033 52.6946C79.5081 52.6946 79.5127 52.6945 79.5168 52.6945C79.5189 52.6945 79.5218 52.6944 79.5228 52.6944C79.5256 52.6944 79.5282 52.6944 79.3944 39.6951C79.2605 26.6958 79.263 26.6957 79.2655 26.6957C79.2662 26.6957 79.2685 26.6957 79.2699 26.6957C79.2727 26.6956 79.2752 26.6956 79.2773 26.6956C79.2816 26.6956 79.2846 26.6955 79.2863 26.6955C79.2897 26.6955 79.2879 26.6955 79.2812 26.6955C79.2676 26.6956 79.2341 26.6957 79.1817 26.6955C79.0768 26.6952 78.8968 26.6939 78.6503 26.6894C78.156 26.6805 77.4016 26.659 76.4537 26.6083C74.5376 26.5057 71.9346 26.2887 69.1471 25.8425C62.6582 24.8037 58.6489 23.0438 57.3893 21.7624L38.8473 39.9886ZM79.3944 39.6951C80 26.7092 79.9973 26.7091 79.9946 26.7089C79.9935 26.7089 79.9906 26.7087 79.9885 26.7087C79.9844 26.7085 79.9798 26.7083 79.975 26.708C79.9652 26.7076 79.9541 26.7071 79.9416 26.7066C79.9166 26.7055 79.8861 26.7042 79.8503 26.7028C79.7786 26.6999 79.6855 26.6964 79.5721 26.6927C79.3453 26.6852 79.0366 26.6766 78.6549 26.6697C77.8928 26.656 76.8326 26.649 75.5468 26.6718C72.9959 26.7172 69.4541 26.8815 65.5332 27.371C61.6553 27.8552 57.1062 28.6933 52.6535 30.1982C48.3053 31.6678 43.2341 34.0431 39.0699 38.0798L57.1667 56.7481C57.519 56.4066 58.6155 55.628 60.9783 54.8294C63.2368 54.0661 65.9421 53.5218 68.7541 53.1708C71.5231 52.8251 74.1067 52.7015 76.0087 52.6677C76.9493 52.651 77.6974 52.6567 78.187 52.6655C78.4312 52.6699 78.6092 52.675 78.7127 52.6785C78.7644 52.6802 78.7973 52.6814 78.8104 52.682C78.8169 52.6822 78.8184 52.6823 78.8149 52.6821C78.8131 52.6821 78.81 52.6819 78.8057 52.6817C78.8035 52.6816 78.801 52.6815 78.7982 52.6814C78.7968 52.6813 78.7944 52.6812 78.7937 52.6812C78.7913 52.6811 78.7887 52.681 79.3944 39.6951ZM39.07 38.0797C34.7889 42.2296 32.2398 47.3842 30.6516 51.8202C29.0262 56.3601 28.1001 61.0213 27.5523 64.9988C26.9983 69.0213 26.7888 72.6643 26.7144 75.2892C26.6769 76.6125 26.6729 77.7041 26.6792 78.4885C26.6824 78.8814 26.6881 79.199 26.6935 79.4321C26.6962 79.5487 26.6988 79.6444 26.7011 79.7178C26.7022 79.7546 26.7032 79.7858 26.7041 79.8114C26.7045 79.8242 26.7049 79.8355 26.7052 79.8455C26.7054 79.8504 26.7056 79.855 26.7057 79.8593C26.7058 79.8614 26.7059 79.8643 26.706 79.8654C26.7061 79.8682 26.7062 79.871 39.6973 79.39C52.6884 78.909 52.6885 78.9116 52.6885 78.9141C52.6886 78.9148 52.6887 78.9172 52.6887 78.9186C52.6888 78.9215 52.6889 78.924 52.689 78.9261C52.6891 78.9305 52.6892 78.9335 52.6893 78.9352C52.6894 78.9386 52.6893 78.9367 52.6891 78.9297C52.6887 78.9157 52.6877 78.8811 52.6864 78.8271C52.6839 78.7191 52.6804 78.5341 52.6784 78.2808C52.6743 77.773 52.6764 76.9985 52.7039 76.0262C52.7597 74.06 52.9169 71.3942 53.3092 68.5462C53.7076 65.6533 54.3073 62.8822 55.1301 60.584C55.9901 58.1818 56.8116 57.0923 57.1666 56.7482L39.07 38.0797ZM39.6973 79.39C52.6831 79.997 52.6832 79.9943 52.6833 79.9915C52.6834 79.9904 52.6835 79.9875 52.6836 79.9854C52.6838 79.9811 52.684 79.9765 52.6843 79.9715C52.6847 79.9616 52.6852 79.9502 52.6858 79.9374C52.6869 79.9118 52.6882 79.8806 52.6897 79.8439C52.6926 79.7704 52.6962 79.6749 52.7 79.5584C52.7077 79.3255 52.7165 79.0081 52.7234 78.6157C52.7372 77.832 52.7438 76.7414 52.719 75.4194C52.6697 72.7968 52.4951 69.1561 51.9791 65.1337C51.4689 61.1566 50.5863 56.4916 49.0011 51.942C47.4523 47.4968 44.9454 42.3212 40.6891 38.1401L22.4687 56.6878C22.808 57.0211 23.6136 58.0998 24.4487 60.4965C25.2474 62.7888 25.8199 65.5536 26.1904 68.4419C26.5551 71.2849 26.6867 73.9453 26.7236 75.9075C26.7418 76.8778 26.7364 77.6505 26.7274 78.157C26.723 78.4097 26.7177 78.5942 26.7141 78.7018C26.7123 78.7556 26.711 78.79 26.7105 78.8039C26.7102 78.8109 26.7101 78.8127 26.7102 78.8092C26.7103 78.8075 26.7105 78.8045 26.7107 78.8001C26.7108 78.7979 26.7109 78.7954 26.711 78.7925C26.7111 78.7911 26.7112 78.7887 26.7112 78.788C26.7113 78.7855 26.7114 78.783 39.6973 79.39ZM40.6891 38.14C36.499 34.0239 31.3707 31.6164 26.9753 30.1353C22.4754 28.6189 17.8741 27.7863 13.9537 27.3123C9.98917 26.833 6.40609 26.6839 3.8257 26.6511C2.52495 26.6346 1.4523 26.6474 0.681344 26.6654C0.295246 26.6744 -0.0169956 26.6848 -0.246301 26.6937C-0.361009 26.6981 -0.455134 26.7022 -0.527547 26.7055C-0.56376 26.7071 -0.594561 26.7086 -0.61981 26.7098C-0.632435 26.7104 -0.643674 26.711 -0.65351 26.7115C-0.658428 26.7118 -0.662995 26.712 -0.667209 26.7122C-0.669314 26.7123 -0.672214 26.7125 -0.673266 26.7125C-0.676071 26.7127 -0.678791 26.7128 0 39.6951C0.678791 52.6773 0.676243 52.6775 0.673781 52.6776C0.673072 52.6776 0.670687 52.6778 0.669267 52.6778C0.666423 52.678 0.663909 52.6781 0.661723 52.6782C0.657352 52.6784 0.654292 52.6786 0.652527 52.6787C0.648998 52.6788 0.65064 52.6788 0.657319 52.6785C0.670687 52.6778 0.704137 52.6764 0.7566 52.6743C0.861637 52.6703 1.04212 52.6641 1.28956 52.6583C1.78569 52.6467 2.54336 52.6369 3.4956 52.649C5.4212 52.6735 8.03478 52.786 10.8329 53.1243C13.6752 53.468 16.4027 54.0091 18.6728 54.774C21.0475 55.5742 22.1307 56.3557 22.4688 56.6879L40.6891 38.14ZM0 39.6951C-0.212814 52.6933 -0.210109 52.6934 -0.207319 52.6934C-0.206272 52.6934 -0.203386 52.6935 -0.20129 52.6935C-0.197093 52.6936 -0.192541 52.6936 -0.187637 52.6937C-0.177829 52.6939 -0.166609 52.694 -0.153996 52.6942C-0.128771 52.6945 -0.097963 52.6949 -0.0617156 52.6952C0.0107676 52.6959 0.105076 52.6966 0.220067 52.6969C0.44994 52.6976 0.76314 52.6968 1.15048 52.6921C1.92395 52.6826 3.00015 52.6572 4.30466 52.5945C6.893 52.4701 10.4831 52.1943 14.4471 51.5769C18.3682 50.9662 22.9547 49.976 27.4191 48.3141C31.7803 46.6906 36.832 44.1312 40.9103 39.9268L22.2476 21.8242C21.8685 22.2151 20.7441 23.0558 18.3485 23.9476C16.0561 24.801 13.305 25.4413 10.4458 25.8866C7.62936 26.3253 4.99624 26.5312 3.05647 26.6244C2.09692 26.6706 1.33284 26.6879 0.83204 26.694C0.582249 26.6971 0.399818 26.6973 0.293344 26.697C0.240161 26.6969 0.206117 26.6966 0.192291 26.6965C0.185384 26.6964 0.183547 26.6964 0.186918 26.6964C0.188603 26.6964 0.191593 26.6965 0.195902 26.6965C0.198057 26.6966 0.200543 26.6966 0.20336 26.6967C0.204768 26.6967 0.207135 26.6967 0.207837 26.6967C0.210282 26.6968 0.212814 26.6968 0 39.6951ZM40.9103 39.9268C48.3778 32.2283 50.7859 20.7467 51.7623 13.9233C52.315 10.0606 52.5453 6.57111 52.6402 4.05641C52.6881 2.78911 52.7025 1.74412 52.7044 0.992841C52.7054 0.616608 52.7032 0.312303 52.7005 0.0887324C52.6991 -0.0231056 52.6976 -0.114905 52.6962 -0.18557C52.6956 -0.220909 52.6949 -0.25098 52.6944 -0.275646C52.6941 -0.28798 52.6938 -0.298965 52.6936 -0.308584C52.6935 -0.313394 52.6934 -0.317862 52.6933 -0.321986C52.6932 -0.324047 52.6931 -0.326886 52.6931 -0.327916C52.6931 -0.330664 52.693 -0.333328 39.6973 0C26.7015 0.333328 26.7015 0.330831 26.7014 0.328417C26.7014 0.327722 26.7013 0.325383 26.7013 0.32399C26.7012 0.321199 26.7012 0.31873 26.7011 0.31658C26.701 0.312282 26.7009 0.30926 26.7009 0.307499C26.7008 0.303978 26.7009 0.305493 26.701 0.311914C26.7012 0.324768 26.7018 0.357182 26.7024 0.408121C26.7037 0.510105 26.7051 0.685611 26.7045 0.926402C26.7033 1.40917 26.6938 2.14709 26.6588 3.0752C26.5879 4.95133 26.4162 7.50271 26.0245 10.2402C25.1119 16.6173 23.4608 20.5734 22.2476 21.8242L40.9103 39.9268Z" fill="url(#paint0_linear_103_409)" mask="url(#path-1-inside-1_103_409)"/>
<defs>
<linearGradient id="paint0_linear_103_409" x1="79.3944" y1="31.8366" x2="-4.68077e-07" y2="31.8366" gradientUnits="userSpaceOnUse">
<stop stop-color="#564C30"/>
<stop offset="0.653885" stop-color="#CCB67A"/>
<stop offset="1" stop-color="#D6CEB8"/>
</linearGradient>
</defs>
</svg>
