<svg width="64" height="59" viewBox="0 0 64 59" fill="none" xmlns="http://www.w3.org/2000/svg">
<path d="M52.3477 28.145C50.746 28.4916 49.1155 28.9394 47.5614 29.5187C45.1104 30.4324 42.7881 31.6955 41.0789 33.4599C38.2993 36.3294 36.8286 40.8568 36.037 45.0042C35.2053 40.8501 33.6907 36.3161 30.8822 33.4551C28.0865 30.6072 23.6292 29.0298 19.4904 28.1414C21.1189 27.8461 22.784 27.4473 24.3739 26.9092C26.8097 26.0849 29.1308 24.9131 30.8651 23.2297C32.6457 21.5013 33.897 19.1469 34.7856 16.6617C35.3119 15.1896 35.7188 13.6492 36.0335 12.1281C36.3333 13.642 36.7244 15.1752 37.2347 16.6416C38.1001 19.1287 39.3299 21.4878 41.0959 23.225C42.8359 24.9366 45.1751 26.1218 47.6329 26.9511C49.1669 27.4687 50.7716 27.8558 52.3477 28.145ZM19.3452 45.5768C19.2012 45.6254 19.058 45.6761 18.916 45.729C17.6885 46.1866 16.4847 46.8331 15.5827 47.7643C14.5987 48.78 13.9417 50.1718 13.4989 51.6019C13.0423 50.1681 12.3714 48.7734 11.3761 47.7595C10.3804 46.7452 9.00224 46.0528 7.57611 45.5758C7.72427 45.5309 7.87165 45.4838 8.0179 45.4343C9.23833 45.0213 10.4426 44.4214 11.359 43.5319C12.3001 42.6184 12.941 41.3963 13.3862 40.151C13.4247 40.0432 13.462 39.9348 13.498 39.8258C13.5315 39.9301 13.5663 40.0339 13.6022 40.1371C14.0359 41.3836 14.6658 42.6087 15.5997 43.5273C16.5197 44.4322 17.7341 45.0392 18.9659 45.4548C19.0916 45.4972 19.2181 45.5378 19.3452 45.5768ZM16.1981 12.1685C15.4416 12.4919 14.7068 12.9283 14.1276 13.5262C13.5649 14.1071 13.1475 14.8443 12.8362 15.6259C12.5171 14.8414 12.0919 14.102 11.522 13.5214C10.9493 12.9381 10.2155 12.4996 9.43343 12.1682C10.1845 11.873 10.9182 11.4663 11.5049 10.8968C12.0934 10.3255 12.5208 9.60329 12.8358 8.85722C13.1436 9.60048 13.5634 10.3204 14.1446 10.8921C14.7251 11.4632 15.4518 11.8717 16.1981 12.1685Z" stroke="url(#paint0_linear_168_40)" stroke-width="2"/>
<defs>
<linearGradient id="paint0_linear_168_40" x1="64" y1="23.6599" x2="-3.77318e-07" y2="23.6599" gradientUnits="userSpaceOnUse">
<stop stop-color="#564C30"/>
<stop offset="0.653885" stop-color="#CCB67A"/>
<stop offset="1" stop-color="#D6CEB8"/>
</linearGradient>
</defs>
</svg>
