<svg width="27" height="28" viewBox="0 0 27 28" fill="none" xmlns="http://www.w3.org/2000/svg">
<path d="M13.6666 0.666504C11.0295 0.666504 8.45164 1.44849 6.25899 2.91358C4.06633 4.37866 2.35737 6.46104 1.3482 8.89739C0.339029 11.3337 0.0749846 14.0146 0.589454 16.601C1.10392 19.1875 2.3738 21.5632 4.2385 23.4279C6.1032 25.2926 8.47897 26.5625 11.0654 27.077C13.6518 27.5914 16.3327 27.3274 18.769 26.3182C21.2054 25.3091 23.2878 23.6001 24.7529 21.4074C26.2179 19.2148 26.9999 16.6369 26.9999 13.9998C26.9999 12.2489 26.655 10.5151 25.985 8.89739C25.3149 7.27972 24.3328 5.80986 23.0947 4.57175C21.8566 3.33363 20.3867 2.35151 18.769 1.68144C17.1514 1.01138 15.4176 0.666504 13.6666 0.666504ZM13.6666 24.6665C11.5569 24.6665 9.49463 24.0409 7.74051 22.8688C5.98638 21.6968 4.61921 20.0309 3.81188 18.0818C3.00454 16.1327 2.79331 13.988 3.20488 11.9189C3.61646 9.84974 4.63236 7.94913 6.12412 6.45737C7.61588 4.96561 9.5165 3.9497 11.5856 3.53813C13.6548 3.12655 15.7995 3.33779 17.7485 4.14512C19.6976 4.95246 21.3635 6.31963 22.5356 8.07375C23.7077 9.82788 24.3333 11.8902 24.3333 13.9998C24.3333 16.8288 23.2095 19.5419 21.2091 21.5423C19.2087 23.5427 16.4956 24.6665 13.6666 24.6665ZM13.6666 5.99984C13.313 5.99984 12.9738 6.14031 12.7238 6.39036C12.4737 6.64041 12.3333 6.97955 12.3333 7.33317V13.9065L10.5066 17.0665C10.3298 17.3742 10.2824 17.7394 10.3749 18.082C10.4675 18.4246 10.6923 18.7164 10.9999 18.8932C11.3076 19.07 11.6729 19.1173 12.0154 19.0248C12.358 18.9323 12.6498 18.7075 12.8266 18.3998L14.8266 14.9332C14.9549 14.6922 15.0061 14.4176 14.9733 14.1465L14.9999 13.9998V7.33317C14.9999 6.97955 14.8594 6.64041 14.6094 6.39036C14.3594 6.14031 14.0202 5.99984 13.6666 5.99984Z" fill="#F2F1E2"/>
</svg>
