<svg width="74" height="54" viewBox="0 0 74 54" fill="none" xmlns="http://www.w3.org/2000/svg">
<path d="M15.6666 53.5834C12.9444 53.5834 10.6249 52.6389 8.70825 50.75C6.79159 48.8612 5.83325 46.5278 5.83325 43.75H0.333252V0.333374H53.5833V14.25H62.3333L73.6666 29.3334V43.75H67.7499C67.7499 46.5278 66.7916 48.8612 64.8749 50.75C62.9583 52.6389 60.6388 53.5834 57.9166 53.5834C55.1944 53.5834 52.8749 52.6389 50.9583 50.75C49.0416 48.8612 48.0833 46.5278 48.0833 43.75H25.4999C25.4999 46.5278 24.5416 48.8612 22.6249 50.75C20.7083 52.6389 18.3888 53.5834 15.6666 53.5834ZM15.6666 48.5834C16.9999 48.5834 18.1388 48.1111 19.0833 47.1667C20.0277 46.2223 20.4999 45.0834 20.4999 43.75C20.4999 42.4167 20.0277 41.2778 19.0833 40.3334C18.1388 39.3889 16.9999 38.9167 15.6666 38.9167C14.3333 38.9167 13.1944 39.3889 12.2499 40.3334C11.3055 41.2778 10.8333 42.4167 10.8333 43.75C10.8333 45.0834 11.3055 46.2223 12.2499 47.1667C13.1944 48.1111 14.3333 48.5834 15.6666 48.5834ZM5.33325 38.75H7.16659C8.11103 37.25 9.30547 36.0556 10.7499 35.1667C12.1944 34.2778 13.8055 33.8334 15.5833 33.8334C17.361 33.8334 18.986 34.2917 20.4583 35.2084C21.9305 36.125 23.1388 37.3056 24.0833 38.75H48.5833V5.33337H5.33325V38.75ZM57.9166 48.5834C59.2499 48.5834 60.3888 48.1111 61.3333 47.1667C62.2777 46.2223 62.7499 45.0834 62.7499 43.75C62.7499 42.4167 62.2777 41.2778 61.3333 40.3334C60.3888 39.3889 59.2499 38.9167 57.9166 38.9167C56.5833 38.9167 55.4444 39.3889 54.4999 40.3334C53.5555 41.2778 53.0833 42.4167 53.0833 43.75C53.0833 45.0834 53.5555 46.2223 54.4999 47.1667C55.4444 48.1111 56.5833 48.5834 57.9166 48.5834ZM53.5833 31.5834H69.0833L59.8333 19.25H53.5833V31.5834Z" fill="url(#paint0_linear_103_328)"/>
<defs>
<linearGradient id="paint0_linear_103_328" x1="73.6666" y1="21.6874" x2="0.333252" y2="21.6874" gradientUnits="userSpaceOnUse">
<stop stop-color="#564C30"/>
<stop offset="0.653885" stop-color="#CCB67A"/>
<stop offset="1" stop-color="#D6CEB8"/>
</linearGradient>
</defs>
</svg>
