<svg width="263" height="32" viewBox="0 0 263 32" fill="none" xmlns="http://www.w3.org/2000/svg">
<path d="M13.2161 5.64799C14.2614 5.64799 15.3068 5.75466 16.3521 5.96799C17.4188 6.18132 18.2721 6.46932 18.9121 6.83199C19.0828 6.93866 19.1894 7.04532 19.2321 7.15199C19.2961 7.23732 19.3388 7.38666 19.3601 7.59999L19.7121 10.96C19.7121 11.024 19.6588 11.0667 19.5521 11.088C19.4454 11.088 19.3814 11.056 19.3601 10.992C18.5921 7.87732 16.1281 6.31999 11.9681 6.31999C10.3041 6.31999 8.83212 6.68266 7.55212 7.40799C6.29345 8.11199 5.31212 9.11466 4.60812 10.416C3.90412 11.7173 3.55212 13.2213 3.55212 14.928C3.55212 16.9333 3.98945 18.7893 4.86412 20.496C5.73879 22.1813 6.90145 23.5253 8.35212 24.528C9.80279 25.5093 11.3708 26 13.0561 26C14.6348 26 15.9894 25.584 17.1201 24.752C18.2721 23.92 19.1148 22.6507 19.6481 20.944C19.6481 20.88 19.6908 20.848 19.7761 20.848C19.8401 20.848 19.8934 20.8587 19.9361 20.88C20.0001 20.9013 20.0321 20.9333 20.0321 20.976L19.5841 24.4C19.5414 24.656 19.4881 24.8267 19.4241 24.912C19.3814 24.976 19.2641 25.0507 19.0721 25.136C17.1734 25.968 15.1361 26.384 12.9601 26.384C10.4001 26.384 8.26679 25.872 6.56012 24.848C4.85345 23.8027 3.59479 22.48 2.78412 20.88C1.97345 19.2587 1.56812 17.5627 1.56812 15.792C1.56812 13.8507 2.11212 12.112 3.20012 10.576C4.28812 9.01866 5.72812 7.81332 7.52012 6.95999C9.31212 6.08532 11.2108 5.64799 13.2161 5.64799ZM43.6144 25.616C43.6997 25.616 43.7424 25.68 43.7424 25.808C43.7424 25.936 43.6997 26 43.6144 26C43.2304 26 42.6117 25.9787 41.7584 25.936C40.9477 25.8933 40.3504 25.872 39.9664 25.872C39.5184 25.872 38.9317 25.8933 38.2064 25.936C37.5237 25.9787 37.0117 26 36.6704 26C36.585 26 36.5424 25.936 36.5424 25.808C36.5424 25.68 36.585 25.616 36.6704 25.616C37.545 25.616 38.1744 25.5413 38.5584 25.392C38.9424 25.2213 39.1344 24.944 39.1344 24.56C39.1344 24.2613 39.017 23.8453 38.7824 23.312L34.9744 15.152H28.8624L25.9824 22.064C25.6837 22.7893 25.5344 23.3867 25.5344 23.856C25.5344 24.4747 25.7904 24.9227 26.3024 25.2C26.8144 25.4773 27.6144 25.616 28.7024 25.616C28.809 25.616 28.8624 25.68 28.8624 25.808C28.8624 25.936 28.809 26 28.7024 26C28.3184 26 27.7637 25.9787 27.0384 25.936C26.2277 25.8933 25.5237 25.872 24.9264 25.872C24.393 25.872 23.7637 25.8933 23.0384 25.936C22.3984 25.9787 21.8757 26 21.4704 26C21.3637 26 21.3103 25.936 21.3103 25.808C21.3103 25.68 21.3637 25.616 21.4704 25.616C22.0677 25.616 22.569 25.5093 22.9744 25.296C23.401 25.0827 23.7957 24.6987 24.1584 24.144C24.5424 23.5893 24.9477 22.8 25.3744 21.776L32.0624 5.67999C32.105 5.61599 32.169 5.58399 32.2544 5.58399C32.361 5.58399 32.425 5.61599 32.4464 5.67999L39.8704 21.616C40.361 22.704 40.7984 23.536 41.1824 24.112C41.5664 24.6667 41.9397 25.0613 42.3024 25.296C42.6864 25.5093 43.1237 25.616 43.6144 25.616ZM29.1184 14.544H34.7184L31.7424 8.20799L29.1184 14.544ZM65.3821 25.616C65.4461 25.616 65.4781 25.68 65.4781 25.808C65.4781 25.936 65.4461 26 65.3821 26H61.6701C61.1154 26 60.0808 25.0827 58.5661 23.248C57.0514 21.392 55.2168 18.832 53.0621 15.568C52.4221 15.7387 51.7714 15.824 51.1101 15.824C50.7474 15.824 50.2888 15.8027 49.7341 15.76V23.408C49.7341 24.0693 49.7981 24.5493 49.9261 24.848C50.0754 25.1467 50.3421 25.3493 50.7261 25.456C51.1101 25.5627 51.7288 25.616 52.5821 25.616C52.6461 25.616 52.6781 25.68 52.6781 25.808C52.6781 25.936 52.6461 26 52.5821 26C51.9421 26 51.4301 25.9893 51.0461 25.968L48.8701 25.936L46.7581 25.968C46.3741 25.9893 45.8408 26 45.1581 26C45.1154 26 45.0941 25.936 45.0941 25.808C45.0941 25.68 45.1154 25.616 45.1581 25.616C46.0114 25.616 46.6301 25.5627 47.0141 25.456C47.4194 25.3493 47.6968 25.1467 47.8461 24.848C47.9954 24.528 48.0701 24.048 48.0701 23.408V8.59199C48.0701 7.95199 47.9954 7.48266 47.8461 7.18399C47.7181 6.88532 47.4514 6.68265 47.0461 6.57599C46.6621 6.44799 46.0541 6.38399 45.2221 6.38399C45.1581 6.38399 45.1261 6.31999 45.1261 6.19199C45.1261 6.06399 45.1581 5.99999 45.2221 5.99999L46.7581 6.03199C47.6114 6.07466 48.3154 6.09599 48.8701 6.09599C49.2541 6.09599 49.6168 6.08532 49.9581 6.06399C50.2994 6.04266 50.5981 6.02132 50.8541 5.99999C51.5154 5.93599 52.1021 5.90399 52.6141 5.90399C54.2994 5.90399 55.5901 6.25599 56.4861 6.95999C57.3821 7.66399 57.8301 8.64532 57.8301 9.90399C57.8301 10.928 57.5314 11.8987 56.9341 12.816C56.3368 13.712 55.5474 14.4267 54.5661 14.96C56.4221 17.6907 57.9688 19.8133 59.2061 21.328C60.4434 22.8427 61.5421 23.9413 62.5021 24.624C63.4834 25.2853 64.4434 25.616 65.3821 25.616ZM49.7341 14.992C50.5448 15.0773 51.1848 15.12 51.6541 15.12C53.2114 15.12 54.3314 14.8 55.0141 14.16C55.6968 13.4987 56.0381 12.4427 56.0381 10.992C56.0381 9.37066 55.6541 8.18666 54.8861 7.43999C54.1394 6.69332 53.1368 6.31999 51.8781 6.31999C51.2808 6.31999 50.8434 6.36266 50.5661 6.44799C50.2888 6.53332 50.0754 6.73599 49.9261 7.05599C49.7981 7.37599 49.7341 7.90932 49.7341 8.65599V14.992ZM75.3059 26.384C73.3219 26.384 71.5512 25.9253 69.9939 25.008C68.4579 24.0693 67.2632 22.8107 66.4099 21.232C65.5779 19.632 65.1619 17.8933 65.1619 16.016C65.1619 13.8187 65.7165 11.9413 66.8259 10.384C67.9352 8.80532 69.3539 7.62132 71.0819 6.83199C72.8312 6.04266 74.6125 5.64799 76.4259 5.64799C78.4525 5.64799 80.2339 6.12799 81.7699 7.08799C83.3059 8.02666 84.4792 9.27466 85.2899 10.832C86.1219 12.3893 86.5379 14.0427 86.5379 15.792C86.5379 17.7333 86.0259 19.5147 85.0019 21.136C83.9779 22.7573 82.6019 24.0373 80.8739 24.976C79.1672 25.9147 77.3112 26.384 75.3059 26.384ZM76.4579 25.744C77.9725 25.744 79.3379 25.392 80.5539 24.688C81.7699 23.984 82.7299 22.9493 83.4339 21.584C84.1379 20.2187 84.4899 18.5867 84.4899 16.688C84.4899 14.6827 84.0952 12.9013 83.3059 11.344C82.5379 9.76532 81.4392 8.53866 80.0099 7.66399C78.6019 6.78932 76.9592 6.35199 75.0819 6.35199C72.6072 6.35199 70.6765 7.11999 69.2899 8.65599C67.9032 10.192 67.2099 12.2827 67.2099 14.928C67.2099 16.912 67.5939 18.736 68.3619 20.4C69.1512 22.0427 70.2499 23.344 71.6579 24.304C73.0659 25.264 74.6659 25.744 76.4579 25.744ZM93.7899 23.28C93.7899 23.8987 93.8539 24.3573 93.9819 24.656C94.1312 24.9333 94.3872 25.1253 94.7499 25.232C95.1339 25.3387 95.7312 25.392 96.5418 25.392H100.638C102.75 25.392 103.998 24.0373 104.382 21.328C104.382 21.264 104.435 21.2427 104.542 21.264C104.67 21.264 104.734 21.296 104.734 21.36C104.542 23.0453 104.446 24.432 104.446 25.52C104.446 25.6907 104.414 25.8187 104.35 25.904C104.286 25.968 104.158 26 103.966 26H89.2459C89.2032 26 89.1819 25.936 89.1819 25.808C89.1819 25.68 89.2032 25.616 89.2459 25.616C90.0779 25.616 90.6859 25.5627 91.0699 25.456C91.4752 25.3493 91.7419 25.1467 91.8699 24.848C92.0192 24.528 92.0939 24.048 92.0939 23.408V8.59199C92.0939 7.95199 92.0192 7.48266 91.8699 7.18399C91.7419 6.88532 91.4752 6.68265 91.0699 6.57599C90.6859 6.44799 90.0779 6.38399 89.2459 6.38399C89.2032 6.38399 89.1819 6.31999 89.1819 6.19199C89.1819 6.06399 89.2032 5.99999 89.2459 5.99999L90.8139 6.03199C91.7099 6.07466 92.4139 6.09599 92.9259 6.09599C93.5019 6.09599 94.2379 6.07466 95.1339 6.03199L96.6379 5.99999C96.6805 5.99999 96.7019 6.06399 96.7019 6.19199C96.7019 6.31999 96.6805 6.38399 96.6379 6.38399C95.8059 6.38399 95.1872 6.44799 94.7819 6.57599C94.3979 6.68265 94.1312 6.89599 93.9819 7.21599C93.8539 7.51466 93.7899 7.98399 93.7899 8.62399V23.28ZM147.763 31.184C147.891 31.184 148.019 31.184 148.147 31.184V31.504C147.549 31.5893 146.877 31.632 146.131 31.632C145.405 31.632 144.499 31.472 143.411 31.152C142.344 30.832 141.373 30.2347 140.499 29.36C138.707 27.568 137.619 25.2427 137.235 22.384L135.283 8.14399L128.627 23.184C128.029 24.4853 127.667 25.5733 127.539 26.448H127.219L118.931 8.43199L117.523 24.336C117.48 24.6987 117.587 25.0187 117.843 25.296C118.12 25.5733 118.419 25.712 118.739 25.712H119.251V26H113.043V25.68H113.555C114.131 25.68 114.632 25.5093 115.059 25.168C115.507 24.8053 115.784 24.336 115.891 23.76L117.907 6.28799C116.029 2.59732 113.779 0.751991 111.154 0.751991C110.92 0.751991 110.674 0.762657 110.418 0.78399V0.463991C110.994 0.314657 111.464 0.23999 111.826 0.23999C112.189 0.23999 112.584 0.261324 113.011 0.303991C113.437 0.325324 113.939 0.421324 114.515 0.591991C115.091 0.762658 115.635 1.01866 116.147 1.35999C116.659 1.67999 117.107 2.02132 117.491 2.38399C117.875 2.72532 118.237 3.10932 118.579 3.53599C119.155 4.30399 119.613 5.03999 119.955 5.74399L127.667 22.448L136.275 3.15199H136.563L139.539 22.096C139.987 25.0827 140.947 27.344 142.419 28.88C143.912 30.416 145.693 31.184 147.763 31.184ZM154.056 26.384C152.072 26.384 150.301 25.9253 148.744 25.008C147.208 24.0693 146.013 22.8107 145.16 21.232C144.328 19.632 143.912 17.8933 143.912 16.016C143.912 13.8187 144.466 11.9413 145.576 10.384C146.685 8.80532 148.104 7.62132 149.832 6.83199C151.581 6.04266 153.362 5.64799 155.176 5.64799C157.202 5.64799 158.984 6.12799 160.52 7.08799C162.056 8.02666 163.229 9.27466 164.04 10.832C164.872 12.3893 165.288 14.0427 165.288 15.792C165.288 17.7333 164.776 19.5147 163.752 21.136C162.728 22.7573 161.352 24.0373 159.624 24.976C157.917 25.9147 156.061 26.384 154.056 26.384ZM155.208 25.744C156.722 25.744 158.088 25.392 159.304 24.688C160.52 23.984 161.48 22.9493 162.184 21.584C162.888 20.2187 163.24 18.5867 163.24 16.688C163.24 14.6827 162.845 12.9013 162.056 11.344C161.288 9.76532 160.189 8.53866 158.76 7.66399C157.352 6.78932 155.709 6.35199 153.832 6.35199C151.357 6.35199 149.426 7.11999 148.04 8.65599C146.653 10.192 145.96 12.2827 145.96 14.928C145.96 16.912 146.344 18.736 147.112 20.4C147.901 22.0427 149 23.344 150.408 24.304C151.816 25.264 153.416 25.744 155.208 25.744ZM176.348 26.128C175.729 26.128 175.036 26.096 174.268 26.032C173.969 26.0107 173.596 25.9893 173.148 25.968C172.721 25.9467 172.241 25.936 171.708 25.936L169.596 25.968C169.212 25.9893 168.678 26 167.996 26C167.953 26 167.932 25.936 167.932 25.808C167.932 25.68 167.953 25.616 167.996 25.616C168.828 25.616 169.436 25.5627 169.82 25.456C170.225 25.3493 170.502 25.1467 170.652 24.848C170.801 24.528 170.876 24.048 170.876 23.408V8.59199C170.876 7.95199 170.801 7.48266 170.652 7.18399C170.524 6.88532 170.257 6.68265 169.852 6.57599C169.468 6.44799 168.86 6.38399 168.028 6.38399C167.985 6.38399 167.964 6.31999 167.964 6.19199C167.964 6.06399 167.985 5.99999 168.028 5.99999L169.596 6.03199C170.492 6.07466 171.196 6.09599 171.708 6.09599C172.454 6.09599 173.212 6.06399 173.98 5.99999C174.918 5.95732 175.558 5.93599 175.9 5.93599C178.14 5.93599 180.124 6.36266 181.852 7.21599C183.58 8.06932 184.913 9.23199 185.852 10.704C186.812 12.176 187.292 13.8293 187.292 15.664C187.292 17.7333 186.79 19.568 185.788 21.168C184.806 22.7467 183.484 23.9733 181.82 24.848C180.156 25.7013 178.332 26.128 176.348 26.128ZM176.028 25.712C177.82 25.712 179.409 25.3493 180.796 24.624C182.182 23.8987 183.26 22.832 184.028 21.424C184.817 20.016 185.212 18.3307 185.212 16.368C185.212 14.4907 184.838 12.7947 184.092 11.28C183.366 9.76532 182.31 8.57066 180.924 7.69599C179.558 6.79999 177.98 6.35199 176.188 6.35199C175.249 6.35199 174.524 6.40532 174.012 6.51199C173.521 6.61866 173.158 6.84266 172.924 7.18399C172.689 7.50399 172.572 7.99466 172.572 8.65599V23.056C172.572 23.696 172.668 24.208 172.86 24.592C173.052 24.976 173.393 25.264 173.884 25.456C174.374 25.6267 175.089 25.712 176.028 25.712ZM210.708 25.616C210.793 25.616 210.836 25.68 210.836 25.808C210.836 25.936 210.793 26 210.708 26C210.324 26 209.705 25.9787 208.852 25.936C208.041 25.8933 207.444 25.872 207.06 25.872C206.612 25.872 206.025 25.8933 205.3 25.936C204.617 25.9787 204.105 26 203.764 26C203.679 26 203.636 25.936 203.636 25.808C203.636 25.68 203.679 25.616 203.764 25.616C204.639 25.616 205.268 25.5413 205.652 25.392C206.036 25.2213 206.228 24.944 206.228 24.56C206.228 24.2613 206.111 23.8453 205.876 23.312L202.068 15.152H195.956L193.076 22.064C192.777 22.7893 192.628 23.3867 192.628 23.856C192.628 24.4747 192.884 24.9227 193.396 25.2C193.908 25.4773 194.708 25.616 195.796 25.616C195.903 25.616 195.956 25.68 195.956 25.808C195.956 25.936 195.903 26 195.796 26C195.412 26 194.857 25.9787 194.132 25.936C193.321 25.8933 192.617 25.872 192.02 25.872C191.487 25.872 190.857 25.8933 190.132 25.936C189.492 25.9787 188.969 26 188.564 26C188.457 26 188.404 25.936 188.404 25.808C188.404 25.68 188.457 25.616 188.564 25.616C189.161 25.616 189.663 25.5093 190.068 25.296C190.495 25.0827 190.889 24.6987 191.252 24.144C191.636 23.5893 192.041 22.8 192.468 21.776L199.156 5.67999C199.199 5.61599 199.263 5.58399 199.348 5.58399C199.455 5.58399 199.519 5.61599 199.54 5.67999L206.964 21.616C207.455 22.704 207.892 23.536 208.276 24.112C208.66 24.6667 209.033 25.0613 209.396 25.296C209.78 25.5093 210.217 25.616 210.708 25.616ZM196.212 14.544H201.812L198.836 8.20799L196.212 14.544ZM215.26 9.87199C215.26 10.7253 215.462 11.4613 215.868 12.08C216.273 12.6987 216.764 13.2213 217.34 13.648C217.937 14.0533 218.758 14.5653 219.804 15.184C220.913 15.8453 221.766 16.4 222.364 16.848C222.982 17.2747 223.505 17.8293 223.932 18.512C224.38 19.1947 224.604 20.016 224.604 20.976C224.604 21.9787 224.358 22.896 223.868 23.728C223.377 24.5387 222.641 25.1893 221.66 25.68C220.7 26.1493 219.516 26.384 218.108 26.384C217.361 26.384 216.646 26.2987 215.964 26.128C215.302 25.9787 214.566 25.7013 213.756 25.296C213.649 25.232 213.574 25.1573 213.532 25.072C213.51 24.9867 213.489 24.8587 213.468 24.688L212.988 20.528V20.496C212.988 20.4107 213.041 20.368 213.148 20.368C213.254 20.3467 213.318 20.3787 213.34 20.464C213.553 21.936 214.118 23.216 215.036 24.304C215.953 25.392 217.212 25.936 218.812 25.936C219.942 25.936 220.892 25.6267 221.66 25.008C222.449 24.3893 222.844 23.4187 222.844 22.096C222.844 21.136 222.63 20.3147 222.204 19.632C221.777 18.928 221.254 18.352 220.636 17.904C220.038 17.4347 219.217 16.8907 218.172 16.272C217.148 15.6747 216.337 15.152 215.74 14.704C215.164 14.256 214.662 13.7013 214.236 13.04C213.83 12.3573 213.628 11.5467 213.628 10.608C213.628 9.54132 213.894 8.63466 214.428 7.88799C214.982 7.14132 215.697 6.58666 216.572 6.22399C217.446 5.83999 218.385 5.64799 219.388 5.64799C220.561 5.64799 221.777 5.90399 223.036 6.41599C223.356 6.54399 223.516 6.72532 223.516 6.95999L223.804 10.352C223.804 10.4373 223.74 10.48 223.612 10.48C223.505 10.48 223.441 10.4373 223.42 10.352C223.334 9.24266 222.918 8.25066 222.172 7.37599C221.425 6.50132 220.358 6.06399 218.972 6.06399C217.692 6.06399 216.753 6.43732 216.156 7.18399C215.558 7.93066 215.26 8.82666 215.26 9.87199Z" fill="white"/>
<path d="M255.137 16.0852C254.959 16.144 254.782 16.206 254.606 16.2712C253.343 16.7415 252.107 17.4053 251.181 18.3597C250.148 19.4243 249.465 20.8929 249.01 22.3963C248.539 20.8891 247.842 19.4175 246.797 18.355C245.754 17.2936 244.301 16.5751 242.802 16.0841C242.985 16.03 243.167 15.9726 243.347 15.9117C244.603 15.4872 245.84 14.8714 246.78 13.9597C247.746 13.0233 248.405 11.7694 248.863 10.4891C248.914 10.348 248.962 10.2058 249.009 10.0628C249.052 10.2011 249.098 10.3385 249.145 10.475C249.592 11.7565 250.239 13.0135 251.198 13.955C252.142 14.8825 253.389 15.5056 254.657 15.9328C254.816 15.9863 254.976 16.037 255.137 16.0852ZM238.433 25.5028C238.159 25.7848 237.933 26.1132 237.745 26.4648C237.553 26.1109 237.322 25.7808 237.044 25.498C236.763 25.2121 236.433 24.974 236.079 24.7754C236.419 24.5947 236.744 24.3725 237.027 24.0978C237.317 23.8172 237.552 23.4918 237.745 23.1496C237.933 23.4897 238.165 23.8132 238.45 24.0931C238.731 24.3696 239.054 24.5932 239.393 24.7752C239.047 24.9712 238.717 25.21 238.433 25.5028ZM238.069 8.08744C237.941 8.18279 237.819 8.28843 237.705 8.40562C237.599 8.51464 237.503 8.63191 237.415 8.75524C237.325 8.63005 237.226 8.51115 237.117 8.40086C237.005 8.28665 236.884 8.18256 236.755 8.08762C236.876 8.00168 236.991 7.90654 237.1 7.80108C237.216 7.68857 237.321 7.56771 237.415 7.44153C237.507 7.56591 237.609 7.68517 237.722 7.79644C237.831 7.90362 237.948 8.00023 238.069 8.08744Z" stroke="url(#paint0_linear_149_25)" stroke-width="2"/>
<defs>
<linearGradient id="paint0_linear_149_25" x1="255.137" y1="15.0701" x2="236.079" y2="15.0701" gradientUnits="userSpaceOnUse">
<stop stop-color="#564C30"/>
<stop offset="0.653885" stop-color="#CCB67A"/>
<stop offset="1" stop-color="#D6CEB8"/>
</linearGradient>
</defs>
</svg>
